<mxfile host="app.diagrams.net" agent="Mozilla/5.0 (Macintosh; Intel Mac OS X 10_15_7) AppleWebKit/605.1.15 (KHTML, like Gecko) Version/18.5 Safari/605.1.15" version="27.1.1">
  <diagram name="Page-1" id="SA__8-6vBq2yEH9kJLS1">
    <mxGraphModel dx="1107" dy="597" grid="1" gridSize="10" guides="1" tooltips="1" connect="1" arrows="1" fold="1" page="1" pageScale="1" pageWidth="827" pageHeight="1169" math="0" shadow="0">
      <root>
        <mxCell id="0" />
        <mxCell id="1" parent="0" />
        <mxCell id="Kard7SKp6GR-nqAfjVyI-59" value="" style="edgeStyle=orthogonalEdgeStyle;rounded=0;orthogonalLoop=1;jettySize=auto;html=1;" edge="1" parent="1" source="Kard7SKp6GR-nqAfjVyI-60" target="Kard7SKp6GR-nqAfjVyI-62">
          <mxGeometry relative="1" as="geometry" />
        </mxCell>
        <mxCell id="Kard7SKp6GR-nqAfjVyI-60" value="Start" style="strokeWidth=2;html=1;shape=mxgraph.flowchart.start_1;whiteSpace=wrap;" vertex="1" parent="1">
          <mxGeometry x="354" y="270" width="100" height="60" as="geometry" />
        </mxCell>
        <mxCell id="Kard7SKp6GR-nqAfjVyI-61" value="" style="edgeStyle=orthogonalEdgeStyle;rounded=0;orthogonalLoop=1;jettySize=auto;html=1;" edge="1" parent="1" source="Kard7SKp6GR-nqAfjVyI-62" target="Kard7SKp6GR-nqAfjVyI-65">
          <mxGeometry relative="1" as="geometry" />
        </mxCell>
        <mxCell id="Kard7SKp6GR-nqAfjVyI-62" value="User inputs username and paswword" style="whiteSpace=wrap;html=1;strokeWidth=2;" vertex="1" parent="1">
          <mxGeometry x="344" y="370" width="120" height="60" as="geometry" />
        </mxCell>
        <mxCell id="Kard7SKp6GR-nqAfjVyI-63" style="edgeStyle=orthogonalEdgeStyle;rounded=0;orthogonalLoop=1;jettySize=auto;html=1;exitX=1;exitY=0.5;exitDx=0;exitDy=0;entryX=1;entryY=0.5;entryDx=0;entryDy=0;" edge="1" parent="1" source="Kard7SKp6GR-nqAfjVyI-65" target="Kard7SKp6GR-nqAfjVyI-62">
          <mxGeometry relative="1" as="geometry" />
        </mxCell>
        <mxCell id="Kard7SKp6GR-nqAfjVyI-64" value="" style="edgeStyle=orthogonalEdgeStyle;rounded=0;orthogonalLoop=1;jettySize=auto;html=1;" edge="1" parent="1" source="Kard7SKp6GR-nqAfjVyI-65" target="Kard7SKp6GR-nqAfjVyI-68">
          <mxGeometry relative="1" as="geometry" />
        </mxCell>
        <mxCell id="Kard7SKp6GR-nqAfjVyI-65" value="username/password match?" style="rhombus;whiteSpace=wrap;html=1;strokeWidth=2;" vertex="1" parent="1">
          <mxGeometry x="315" y="470" width="178" height="90" as="geometry" />
        </mxCell>
        <mxCell id="Kard7SKp6GR-nqAfjVyI-66" value="N" style="text;html=1;align=center;verticalAlign=middle;resizable=0;points=[];autosize=1;strokeColor=none;fillColor=none;" vertex="1" parent="1">
          <mxGeometry x="475" y="448" width="30" height="30" as="geometry" />
        </mxCell>
        <mxCell id="Kard7SKp6GR-nqAfjVyI-67" value="" style="edgeStyle=orthogonalEdgeStyle;rounded=0;orthogonalLoop=1;jettySize=auto;html=1;" edge="1" parent="1" source="Kard7SKp6GR-nqAfjVyI-68" target="Kard7SKp6GR-nqAfjVyI-69">
          <mxGeometry relative="1" as="geometry" />
        </mxCell>
        <mxCell id="Kard7SKp6GR-nqAfjVyI-68" value="Login successfully&amp;nbsp;" style="whiteSpace=wrap;html=1;strokeWidth=2;" vertex="1" parent="1">
          <mxGeometry x="344" y="600" width="120" height="60" as="geometry" />
        </mxCell>
        <mxCell id="Kard7SKp6GR-nqAfjVyI-69" value="End" style="strokeWidth=2;html=1;shape=mxgraph.flowchart.terminator;whiteSpace=wrap;" vertex="1" parent="1">
          <mxGeometry x="354" y="690" width="100" height="60" as="geometry" />
        </mxCell>
        <mxCell id="Kard7SKp6GR-nqAfjVyI-70" value="Y" style="text;html=1;align=center;verticalAlign=middle;resizable=0;points=[];autosize=1;strokeColor=none;fillColor=none;" vertex="1" parent="1">
          <mxGeometry x="409" y="561" width="30" height="30" as="geometry" />
        </mxCell>
      </root>
    </mxGraphModel>
  </diagram>
</mxfile>
